<?xml version="1.0" encoding="UTF-8"?>
<!DOCTYPE svg PUBLIC "-//W3C//DTD SVG 1.1//EN" "http://www.w3.org/Graphics/SVG/1.1/DTD/svg11.dtd">
<svg xmlns="http://www.w3.org/2000/svg" version="1.1" width="50px" height="67px" style="shape-rendering:geometricPrecision; text-rendering:geometricPrecision; image-rendering:optimizeQuality; fill-rule:evenodd; clip-rule:evenodd" xmlns:xlink="http://www.w3.org/1999/xlink">
<g><path style="opacity:1" fill="#292020" d="M -0.5,-0.5 C 16.1667,-0.5 32.8333,-0.5 49.5,-0.5C 49.5,8.16667 49.5,16.8333 49.5,25.5C 47.0673,25.7856 47.0673,26.4523 49.5,27.5C 49.5,40.5 49.5,53.5 49.5,66.5C 41.5,66.5 33.5,66.5 25.5,66.5C 25.2231,64.2719 24.2231,62.6053 22.5,61.5C 22.33,60.1779 22.6634,59.0113 23.5,58C 19.7168,57.3907 18.0502,55.224 18.5,51.5C 20.5,51.1667 22.5,50.8333 24.5,50.5C 24.5,48.8333 24.5,47.1667 24.5,45.5C 23.1779,45.67 22.0113,45.3366 21,44.5C 20.8706,41.9973 19.8706,39.9973 18,38.5C 17.7811,39.938 17.2811,41.2713 16.5,42.5C 16.1667,42.3333 15.8333,42.1667 15.5,42C 16.3802,40.6439 16.7135,39.1439 16.5,37.5C 12.4384,37.2759 9.60502,35.2759 8,31.5C 7.62576,30.5838 7.12576,29.7504 6.5,29C 8.10747,29.0187 9.77414,29.1854 11.5,29.5C 11.3359,26.8127 11.5026,24.146 12,21.5C 12.2065,24.6229 12.8732,27.6229 14,30.5C 15.5548,32.1458 17.2215,32.4791 19,31.5C 19.6667,32.1667 20.3333,32.8333 21,33.5C 22.91,42.8364 24.41,42.6698 25.5,33C 22.5168,31.92 21.1835,30.0867 21.5,27.5C 22.3554,26.707 23.1887,27.0403 24,28.5C 24.4994,22.8431 24.6661,17.1764 24.5,11.5C 30.906,11.3513 30.7393,10.6847 24,9.5C 21.3592,9.90264 19.0259,10.9026 17,12.5C 13.6667,9.16667 10.3333,5.83333 7,2.5C 4.08182,7.42675 3.08182,12.7601 4,18.5C 5.18215,16.6564 6.34881,14.8231 7.5,13C 6.35464,10.8014 6.35464,8.63476 7.5,6.5C 11.07,8.28086 13.7367,10.9475 15.5,14.5C 13.3498,14.85 11.1831,14.1834 9,12.5C 8.50649,14.1341 8.33982,15.8008 8.5,17.5C 7.5,17.5 6.5,17.5 5.5,17.5C 5.42629,21.2256 3.92629,24.2256 1,26.5C 0.813823,29.0356 0.313823,31.369 -0.5,33.5C -0.5,22.1667 -0.5,10.8333 -0.5,-0.5 Z"/></g>
<g><path style="opacity:1" fill="#ec2224" d="M 41.5,0.5 C 43.2252,0.842542 43.7252,1.84254 43,3.5C 42.3333,2.16667 41.6667,2.16667 41,3.5C 40.5304,2.42317 40.6971,1.42317 41.5,0.5 Z"/></g>
<g><path style="opacity:1" fill="#e2e5e5" d="M 22.5,61.5 C 20.5012,60.1435 19.3345,60.8101 19,63.5C 18.7398,61.3825 17.7398,59.7158 16,58.5C 15.6667,55.8333 15.3333,53.1667 15,50.5C 12.8515,49.0226 11.5182,47.0226 11,44.5C 9.80499,47.2248 9.47166,49.8915 10,52.5C 8.33333,49.8333 6.66667,47.1667 5,44.5C 4.66667,45.5 4.33333,46.5 4,47.5C 2.97406,44.7613 1.47406,42.428 -0.5,40.5C -0.5,38.1667 -0.5,35.8333 -0.5,33.5C 0.313823,31.369 0.813823,29.0356 1,26.5C 3.92629,24.2256 5.42629,21.2256 5.5,17.5C 6.5,17.5 7.5,17.5 8.5,17.5C 8.33982,15.8008 8.50649,14.1341 9,12.5C 11.1831,14.1834 13.3498,14.85 15.5,14.5C 13.7367,10.9475 11.07,8.28086 7.5,6.5C 6.35464,8.63476 6.35464,10.8014 7.5,13C 6.34881,14.8231 5.18215,16.6564 4,18.5C 3.08182,12.7601 4.08182,7.42675 7,2.5C 10.3333,5.83333 13.6667,9.16667 17,12.5C 19.0259,10.9026 21.3592,9.90264 24,9.5C 30.7393,10.6847 30.906,11.3513 24.5,11.5C 24.6661,17.1764 24.4994,22.8431 24,28.5C 23.1887,27.0403 22.3554,26.707 21.5,27.5C 21.1835,30.0867 22.5168,31.92 25.5,33C 24.41,42.6698 22.91,42.8364 21,33.5C 20.3333,32.8333 19.6667,32.1667 19,31.5C 17.2215,32.4791 15.5548,32.1458 14,30.5C 12.8732,27.6229 12.2065,24.6229 12,21.5C 11.5026,24.146 11.3359,26.8127 11.5,29.5C 9.77414,29.1854 8.10747,29.0187 6.5,29C 7.12576,29.7504 7.62576,30.5838 8,31.5C 9.60502,35.2759 12.4384,37.2759 16.5,37.5C 16.7135,39.1439 16.3802,40.6439 15.5,42C 15.8333,42.1667 16.1667,42.3333 16.5,42.5C 17.2811,41.2713 17.7811,39.938 18,38.5C 19.8706,39.9973 20.8706,41.9973 21,44.5C 22.0113,45.3366 23.1779,45.67 24.5,45.5C 24.5,47.1667 24.5,48.8333 24.5,50.5C 22.5,50.8333 20.5,51.1667 18.5,51.5C 18.0502,55.224 19.7168,57.3907 23.5,58C 22.6634,59.0113 22.33,60.1779 22.5,61.5 Z"/></g>
<g><path style="opacity:1" fill="#e82223" d="M 38.5,8.5 C 39.2389,8.36899 39.9056,8.53566 40.5,9C 38.9825,10.6851 37.3159,12.1851 35.5,13.5C 34.479,12.9984 34.3123,12.3317 35,11.5C 36.1451,10.3636 37.3117,9.36362 38.5,8.5 Z"/></g>
<g><path style="opacity:1" fill="#ec2224" d="M 44.5,21.5 C 46.0847,22.0024 46.5847,23.0024 46,24.5C 44.9614,23.7562 44.4614,22.7562 44.5,21.5 Z"/></g>
<g><path style="opacity:1" fill="#e52123" d="M 49.5,25.5 C 49.5,26.1667 49.5,26.8333 49.5,27.5C 47.0673,26.4523 47.0673,25.7856 49.5,25.5 Z"/></g>
<g><path style="opacity:1" fill="#ec2224" d="M 30.5,30.5 C 31.0431,30.56 31.3764,30.8933 31.5,31.5C 26.9432,37.8503 26.6099,37.517 30.5,30.5 Z"/></g>
<g><path style="opacity:1" fill="#ec2223" d="M 13.5,34.5 C 14.7211,33.5354 16.0544,33.702 17.5,35C 18.4506,35.7175 18.6172,36.5509 18,37.5C 16.3853,36.6138 14.8853,35.6138 13.5,34.5 Z"/></g>
<g><path style="opacity:1" fill="#231f20" d="M -0.5,40.5 C 1.47406,42.428 2.97406,44.7613 4,47.5C 4.33333,46.5 4.66667,45.5 5,44.5C 6.66667,47.1667 8.33333,49.8333 10,52.5C 9.47166,49.8915 9.80499,47.2248 11,44.5C 11.5182,47.0226 12.8515,49.0226 15,50.5C 15.3333,53.1667 15.6667,55.8333 16,58.5C 17.7398,59.7158 18.7398,61.3825 19,63.5C 19.3345,60.8101 20.5012,60.1435 22.5,61.5C 21.032,62.7791 20.3653,64.4458 20.5,66.5C 13.5,66.5 6.5,66.5 -0.5,66.5C -0.5,57.8333 -0.5,49.1667 -0.5,40.5 Z"/></g>
<g><path style="opacity:1" fill="#e92223" d="M 43.5,43.5 C 44.905,45.2251 45.405,47.2251 45,49.5C 43.3148,47.0122 41.9814,47.3455 41,50.5C 41.2373,48.0111 42.0707,45.6778 43.5,43.5 Z"/></g>
<g><path style="opacity:1" fill="#a42323" d="M 28.5,49.5 C 29.0431,49.56 29.3764,49.8933 29.5,50.5C 28.635,51.5827 27.635,51.7494 26.5,51C 27.4158,50.7216 28.0825,50.2216 28.5,49.5 Z"/></g>
<g><path style="opacity:1" fill="#e6e9e8" d="M 22.5,51.5 C 23.552,51.3505 24.552,51.5172 25.5,52C 23.7806,53.0569 21.9472,53.8903 20,54.5C 19.8333,54.1667 19.6667,53.8333 19.5,53.5C 20.6016,52.8243 21.6016,52.1577 22.5,51.5 Z"/></g>
<g><path style="opacity:1" fill="#e5e8e8" d="M 22.5,61.5 C 24.2231,62.6053 25.2231,64.2719 25.5,66.5C 23.8333,66.5 22.1667,66.5 20.5,66.5C 20.3653,64.4458 21.032,62.7791 22.5,61.5 Z"/></g>
<g><path style="opacity:1" fill="#ec2223" d="M 29.5,62.5 C 32.0009,62.5109 32.1676,63.1776 30,64.5C 29.5357,63.9056 29.369,63.2389 29.5,62.5 Z"/></g>
</svg>
